# xmcd
#
# Track frame offsets: 
#        150
#        21557
#        34280
#        46650
#        64252
#        78433
#        92191
#        107617
#        122903
#        139994
#        151736
#        167580
#        179843
#        196688
#        211487
#        227134
#        245516
#        257864
#        272784
#        286876
#        303113
#        322053
#        333770
#        351051
#
# Disc length: 4808 seconds
#
# Revision: 1
# Processed by: cddbd v1.5.2PL0 Copyright (c) Steve Scherf et al.
# Submitted via: ExactAudioCopy v1.0b3
#
DISCID=6112c618
DTITLE=Chris Isaak - Blue spanish sky
DYEAR=1900
DGENRE=
TTITLE0=Wicked game
TTITLE1=Only the lonely
TTITLE2=San Francisco Days
TTITLE3=Blue Spanish Sky
TTITLE4=Blue Hotel
TTITLE5=I Want Your Love
TTITLE6=Please
TTITLE7=Heart Shaped World
TTITLE8=Beatiful Homes
TTITLE9=Voodoo
TTITLE10=Two Hearts
TTITLE11=Somebody's Crying
TTITLE12=You Owe Me Some Kind Of Love
TTITLE13=Heart Full Of Soul
TTITLE14=Speak Of The Devil
TTITLE15=Nothing's óhanged
TTITLE16=Like The Way She Moves
TTITLE17=Funeral In The Rain
TTITLE18=Lonely With A Broken Heart
TTITLE19=Waiting
TTITLE20=Lie To Me
TTITLE21=Forever Blue
TTITLE22=Move Along
TTITLE23=Wicked Game (karaoke)
EXTD=
EXTT0=
EXTT1=
EXTT2=
EXTT3=
EXTT4=
EXTT5=
EXTT6=
EXTT7=
EXTT8=
EXTT9=
EXTT10=
EXTT11=
EXTT12=
EXTT13=
EXTT14=
EXTT15=
EXTT16=
EXTT17=
EXTT18=
EXTT19=
EXTT20=
EXTT21=
EXTT22=
EXTT23=
PLAYORDER=
